<?xml version="1.0" encoding="UTF-8"?>
<svg version="1.1" xmlns="http://www.w3.org/2000/svg" width="500" height="500">
<path d="M0 0 C-0.59168331 6.13519237 -1.91811379 11.68664935 -3.75 17.5625 C-4.01949463 18.44526611 -4.28898926 19.32803223 -4.56665039 20.23754883 C-6.10823873 25.25055226 -7.73657889 30.22600918 -9.4375 35.1875 C-11.80231453 42.2006531 -13.80787025 49.28689421 -15.77880859 56.41967773 C-19.13472536 68.55037635 -22.59990826 80.6493947 -26.0625 92.75 C-26.65814106 94.83251401 -27.25376312 96.91503345 -27.84936523 98.99755859 C-28.13946976 100.01123505 -28.42957428 101.0249115 -28.72846985 102.06930542 C-29.30502052 104.08585119 -29.88046135 106.10271462 -30.45475769 108.11990356 C-31.86556075 113.06957368 -33.29618588 118.01176819 -34.76904297 122.94335938 C-35.04928818 123.89261292 -35.32953339 124.84186646 -35.61827087 125.81988525 C-36.14436253 127.5996549 -36.67766676 129.37731594 -37.21974182 131.15228271 C-39.66178754 139.33771563 -39.66178754 139.33771563 -37.7421875 147.37890625 C-37.12601562 148.09949219 -36.50984375 148.82007813 -35.875 149.5625 C-35.15183594 150.41070312 -34.42867188 151.25890625 -33.68359375 152.1328125 C-30.52901994 155.5032014 -27.24168535 158.71504516 -23.9375 161.9375 C-18.29203085 167.46150512 -13.65540443 172.92711687 -10 180 C-9.60554688 180.76054687 -9.21109375 181.52109375 -8.8046875 182.3046875 C-3.65791821 193.62757993 -2.03570319 206.79702334 -4 219 C-4.11472656 219.86367188 -4.22945313 220.72734375 -4.34765625 221.6171875 C-6.5528062 236.04700369 -11.82160653 248.44519661 -19 261 C-19.79192848 262.52069702 -20.58363581 264.04150925 -21.375 265.5625 C-27.23437913 275.95313232 -34.64075445 285.07452454 -42.84765625 293.671875 C-45.01666666 295.80100516 -45.01666666 295.80100516 -46 298 C-46.66 298 -47.32 298 -48 298 C-48 298.66 -48 299.32 -48 300 C-57.42443714 310.02236216 -70.14592008 318.22438575 -82 325 C-82.6285791 325.36480469 -83.2571582 325.72960937 -83.90478516 326.10546875 C-99.61585129 335.14270532 -116.41222833 340.81040989 -134 345 C-134.82886719 345.20238281 -135.65773438 345.40476562 -136.51171875 345.61328125 C-138.9999159 346.16668333 -141.4823203 346.60059472 -144 347 C-145.11632812 347.185625 -146.23265625 347.37125 -147.3828125 347.5625 C-169.51797618 350.81228393 -193.91685742 350.65499375 -215.88476562 346.40576172 C-217.86931828 346.02506845 -219.86430817 345.6999747 -221.859375 345.37890625 C-238.86371195 342.44146178 -254.9288229 336.29970145 -270 328 C-271.05445313 327.43539063 -272.10890625 326.87078125 -273.1953125 326.2890625 C-308.75641659 306.51226049 -332.52233798 272.07913512 -345 234 C-345.58201172 232.23462891 -345.58201172 232.23462891 -346.17578125 230.43359375 C-355.31166394 200.55678818 -356.78504504 170.67956678 -352 140 C-351.89316895 139.29101562 -351.78633789 138.58203125 -351.67626953 137.8515625 C-345.25187659 96.49914815 -320.82714377 57.99080566 -287.30078125 33.265625 C-281.40831565 29.15452021 -275.27918672 25.4854336 -269 22 C-268.37786621 21.65195313 -267.75573242 21.30390625 -267.11474609 20.9453125 C-224.87569822 -2.34691188 -169.33419942 -4.92301213 -123.31494141 7.73876953 C-101.32801804 14.2200043 -80.63678375 24.20469808 -63 39 C-63.40931094 43.88503711 -65.81475771 46.35924649 -69.125 49.6875 C-74.00348672 54.78820341 -78.1365624 60.07886193 -82 66 C-82.81215558 67.20856485 -83.62459789 68.41693715 -84.4375 69.625 C-85.2109375 70.800625 -85.2109375 70.800625 -86 72 C-89.93981221 70.68672926 -90.20174819 69.23922683 -92.125 65.625 C-104.76880006 43.2531609 -124.92353146 27.66554317 -149.5 20.625 C-160.72427433 17.92352396 -172.45150148 16.44029894 -184 17 C-184.93199219 17.01804687 -185.86398438 17.03609375 -186.82421875 17.0546875 C-207.66145317 17.9436034 -225.82271857 26.06981798 -242.42578125 38.21484375 C-245 40 -245 40 -248 41 C-248 41.66 -248 42.32 -248 43 C-249.57421875 44.515625 -249.57421875 44.515625 -251.6875 46.25 C-254.35349133 48.50075728 -256.71010091 50.70049545 -258.875 53.4375 C-259.926875 54.7059375 -259.926875 54.7059375 -261 56 C-261.66 56 -262.32 56 -263 56 C-263.23589844 56.53238281 -263.47179687 57.06476563 -263.71484375 57.61328125 C-265.03805671 60.07067674 -266.6010465 62.23558473 -268.27441406 64.46459961 C-280.42779576 80.72055387 -288.02178014 98.87531339 -293.75 118.25 C-294.04406738 119.24394775 -294.33813477 120.23789551 -294.64111328 121.26196289 C-299.77610307 139.17198664 -301.90249553 158.3876039 -301 177 C-300.95891113 177.85368164 -300.91782227 178.70736328 -300.87548828 179.58691406 C-298.66952922 220.39363275 -286.70505657 259.38868413 -262.18579102 292.25512695 C-260.9318278 294.10031433 -259.95421018 295.98580178 -259 298 C-258.34 298 -257.68 298 -257 298 C-257 298.66 -257 299.32 -257 300 C-256.34 300 -255.68 300 -255 300 C-253.31267723 301.98260426 -251.64633943 303.9832342 -250 306 C-249.34 306.33 -248.68 306.66 -248 307 C-248 307.66 -248 308.32 -248 309 C-247.46117187 309.24363281 -246.92234375 309.48726563 -246.3671875 309.73828125 C-243.4176446 311.31039735 -240.83190615 313.22651188 -238.125 315.1875 C-215.28302586 331.2221776 -188.61315222 336.83850869 -161.16015625 332.39794922 C-132.95843071 327.202559 -108.71485132 310.22003019 -92.28808594 286.93505859 C-78.08016427 265.59086088 -70.59668887 241.83540587 -63.91308594 217.33740234 C-62.35886022 211.65658267 -60.77289066 205.98468476 -59.1875 200.3125 C-58.8975415 199.26771484 -58.60758301 198.22292969 -58.30883789 197.14648438 C-57.21918287 193.23875603 -56.13066152 189.37422473 -54.79296875 185.54296875 C-53.27332879 180.66964062 -54.17164969 176.58767143 -56.5 172.125 C-61.27813553 165.75990249 -66.91164558 160.01802606 -72.625 154.5 C-84.43252384 142.77461546 -91.82172648 128.52507497 -92.375 111.875 C-92.26072847 103.73723444 -90.53309032 96.72283634 -88 89 C-87.72285156 88.12988281 -87.44570313 87.25976562 -87.16015625 86.36328125 C-80.51023971 67.82319137 -65.13014317 48.24222099 -49 37 C-48.34 37 -47.68 37 -47 37 C-47 36.34 -47 35.68 -47 35 C-44.99481947 33.27213167 -42.98102715 31.65971807 -40.875 30.0625 C-39.58060321 29.06396534 -38.28633588 28.06526284 -36.9921875 27.06640625 C-35.99396973 26.30094482 -35.99396973 26.30094482 -34.97558594 25.52001953 C-31.96503027 23.20369235 -28.98317476 20.85140869 -26 18.5 C-24.84778579 17.59488715 -23.69544114 16.68994034 -22.54296875 15.78515625 C-20.06401467 13.8376544 -17.58793642 11.88655486 -15.11328125 9.93359375 C-14.47712891 9.43214844 -13.84097656 8.93070313 -13.18554688 8.4140625 C-11.96608031 7.45273119 -10.74729439 6.49053565 -9.52929688 5.52734375 C-2.51318941 0 -2.51318941 0 0 0 Z " fill="#28868A" transform="translate(429,75)"/>
<path d="M0 0 C0.99 0.99 0.99 0.99 2 2 C1.91796875 4.484375 1.91796875 4.484375 1 7 C-1.07421875 8.265625 -1.07421875 8.265625 -3.6875 9.25 C-9.39231619 11.84086924 -12.45789347 15.28729565 -15 21 C-16.05583886 25.9462847 -16.14929111 30.73550856 -16.17578125 35.765625 C-16.19898493 37.4778768 -16.22310249 39.19011642 -16.24804688 40.90234375 C-16.2830454 43.57251107 -16.31246081 46.24222952 -16.32592773 48.91259766 C-16.41195121 63.21366975 -17.35955035 73.00332002 -27.60546875 83.79296875 C-30.84843162 86.78199652 -34.13355105 88.89102784 -38 91 C-37.35933594 91.4125 -36.71867187 91.825 -36.05859375 92.25 C-26.30369227 98.76295956 -19.66669937 105.25792053 -17 117 C-14.81034565 133.84494245 -12.82028186 154.22651672 -22.625 168.875 C-26.29556131 173.55649225 -30.43381359 177.67252166 -36 180 C-36.99 179.67 -37.98 179.34 -39 179 C-39.00364563 178.25577286 -39.00729126 177.51154572 -39.01104736 176.74476624 C-39.04906448 169.69826617 -39.1060711 162.6522274 -39.18390274 155.60607243 C-39.22325196 151.98435331 -39.2555012 148.36287275 -39.27099609 144.7409668 C-39.28624655 141.23932697 -39.32083721 137.73834353 -39.36830902 134.2369976 C-39.39015817 132.26479487 -39.3924665 130.29240648 -39.39434814 128.32008362 C-39.5144712 120.88444796 -40.47326327 115.53159109 -44 109 C-44.33 108.01 -44.66 107.02 -45 106 C-47.39068734 104.89363605 -47.39068734 104.89363605 -50 104 C-50.99 103.34 -51.98 102.68 -53 102 C-56.11677416 101.39184894 -59.2359528 100.98509986 -62.3828125 100.5625 C-63.67832031 100.2840625 -63.67832031 100.2840625 -65 100 C-66.50156874 96.99686252 -66.09281204 94.20932478 -66.0625 90.875 C-66.05347656 89.59367187 -66.04445312 88.31234375 -66.03515625 86.9921875 C-66.02355469 86.00476563 -66.01195312 85.01734375 -66 84 C-64.5459375 83.5978125 -64.5459375 83.5978125 -63.0625 83.1875 C-61.70751638 82.7944723 -60.35342624 82.39835763 -59 82 C-58.24332031 81.78214844 -57.48664063 81.56429687 -56.70703125 81.33984375 C-51.33207019 79.69224262 -46.87616896 78.14178802 -43.84765625 73.0703125 C-40.89441014 67.33197664 -39.86052288 62.64015298 -39.82421875 56.18359375 C-39.80099854 54.59829434 -39.77688035 53.01300787 -39.75195312 51.42773438 C-39.71703753 48.94189053 -39.6876035 46.45651667 -39.67407227 43.97045898 C-39.59560369 31.89957777 -38.75851534 21.82745276 -31 12 C-30.34 12 -29.68 12 -29 12 C-28.67 11.01 -28.34 10.02 -28 9 C-20.6137012 2.26285335 -9.93037816 -1.07938893 0 0 Z " fill="#C93E5E" transform="translate(238,159)"/>
<path d="M0 0 C0.99 0.33 1.98 0.66 3 1 C3.00586624 1.73391968 3.01173248 2.46783936 3.01777649 3.22399902 C3.07587356 10.1677239 3.14804682 17.11117805 3.23571491 24.05458832 C3.28028966 27.62360846 3.31957324 31.19251786 3.34643555 34.76171875 C3.37259851 38.21139862 3.4130901 41.66064928 3.46318626 45.11006165 C3.48779316 47.05516814 3.49786607 49.00044115 3.50764465 50.94567871 C3.61875194 57.68503806 4.13547328 62.87679918 7 69 C7.474375 70.051875 7.94875 71.10375 8.4375 72.1875 C13.8718728 78.15205552 22.47128818 79.84893948 30 82 C30 86.95 30 91.9 30 97 C22.55319149 99.12765957 22.55319149 99.12765957 18.8125 99.9375 C15.34638123 100.90346753 13.67203184 101.73904998 11 104 C10.34 104 9.68 104 9 104 C5.33894411 110.75887242 3.56426117 116.6272 3.6640625 124.234375 C3.65154507 125.79427495 3.63850772 127.35417081 3.625 128.9140625 C3.62109034 131.32730056 3.6249398 133.74012247 3.63964844 136.15332031 C3.68800746 149.2801084 2.37806232 160.38367233 -7.1875 170.3203125 C-12.67043244 175.40147834 -17.82480592 177.9419986 -25 180 C-25.99 180.33 -26.98 180.66 -28 181 C-30.6928496 181.17812624 -33.29441368 181.08727698 -36 181 C-37 180 -37 180 -37.0625 176.9375 C-37.041875 175.968125 -37.02125 174.99875 -37 174 C-34.03 173.01 -31.06 172.02 -28 171 C-28 170.34 -28 169.68 -28 169 C-27.236875 168.319375 -26.47375 167.63875 -25.6875 166.9375 C-20.19133108 160.93005955 -19.57166079 153.65457195 -19.6640625 145.79296875 C-19.65154837 144.05403274 -19.63851118 142.31510043 -19.625 140.57617188 C-19.62108479 137.88422242 -19.62497194 135.19264606 -19.63964844 132.50073242 C-19.68474643 118.81725042 -18.85551365 107.14249679 -8.90625 96.69140625 C-1.36489607 90 -1.36489607 90 3 90 C3 89.34 3 88.68 3 88 C1.7625 87.7215625 1.7625 87.7215625 0.5 87.4375 C-8.92434362 83.56678744 -14.23775972 75.47730909 -18.12109375 66.37109375 C-19.3560643 61.63429559 -19.51690735 57.00347023 -19.6875 52.125 C-19.72512451 51.10575439 -19.76274902 50.08650879 -19.80151367 49.03637695 C-20.69937108 20.29363182 -20.69937108 20.29363182 -10.625 8.625 C-7.32371282 5.17710961 -4.28243613 2.14121807 0 0 Z " fill="#C73E5D" transform="translate(298,161)"/>
<path d="M0 0 C2.90387376 2.57530089 4.61020091 5.54101117 6.5625 8.875 C9.91486726 14.49992782 13.66141487 19.67088486 17.76196289 24.77294922 C19.69560439 27.19736462 21.00872564 29.02617692 22 32 C22.66 32 23.32 32 24 32 C25.7265625 33.96875 25.7265625 33.96875 27.625 36.5 C28.25664063 37.3353125 28.88828125 38.170625 29.5390625 39.03125 C30.02117187 39.6809375 30.50328125 40.330625 31 41 C24.59079987 47.60948764 17.60747308 53.37035965 10.2890625 58.94262695 C4.55558076 63.31440678 -1.06695233 67.82044666 -6.6875 72.3359375 C-7.25210938 72.78807617 -7.81671875 73.24021484 -8.3984375 73.70605469 C-9.88279425 74.90530633 -11.34852327 76.12751529 -12.8125 77.3515625 C-15 79 -15 79 -17 79 C-17 79.66 -17 80.32 -17 81 C-19.475 81.99 -19.475 81.99 -22 83 C-21.49815993 75.01536602 -19.37197136 67.62975364 -17.1640625 59.98748779 C-12.68237925 44.46512844 -8.62878916 28.86328659 -4.86914062 13.15112305 C-4.51696369 11.7023023 -4.16475205 10.25348999 -3.8125 8.8046875 C-3.35810547 6.90178955 -3.35810547 6.90178955 -2.89453125 4.96044922 C-2 2 -2 2 0 0 Z " fill="#2A8589" transform="translate(92,343)"/>
<path d="M0 0 C0.66 0.66 1.32 1.32 2 2 C1.91796875 4.484375 1.91796875 4.484375 1 7 C-1.07421875 8.265625 -1.07421875 8.265625 -3.6875 9.25 C-9.41725859 11.84398813 -12.36731741 15.3266176 -15 21 C-15.66411298 23.67528169 -15.66411298 23.67528169 -16 26 C-16.33 26 -16.66 26 -17 26 C-17.309375 24.906875 -17.61875 23.81375 -17.9375 22.6875 C-18.58337897 20.44592006 -19.2623117 18.2130649 -20 16 C-18.0625 13.3125 -18.0625 13.3125 -16 11 C-16.66 11 -17.32 11 -18 11 C-18.33 9.68 -18.66 8.36 -19 7 C-18.34 7 -17.68 7 -17 7 C-17.33 5.68 -17.66 4.36 -18 3 C-12.0858622 0.39082156 -6.45343916 -0.3723138 0 0 Z " fill="#BF3F5D" transform="translate(238,159)"/>
<path d="M0 0 C0.33 0 0.66 0 1 0 C1 2.97 1 5.94 1 9 C-0.32 9.33 -1.64 9.66 -3 10 C-2.814375 10.556875 -2.62875 11.11375 -2.4375 11.6875 C-1.92448835 14.399133 -2.3359276 16.34371039 -3 19 C-1.68 19.33 -0.36 19.66 1 20 C0.67 20.99 0.34 21.98 0 23 C-5.47200022 24.82400007 -10.25539359 25.30234771 -16 25 C-17 24 -17 24 -17.0625 20.9375 C-17.041875 19.968125 -17.02125 18.99875 -17 18 C-14.03 17.01 -11.06 16.02 -8 15 C-8 14.34 -8 13.68 -8 13 C-7.236875 12.29875 -6.47375 11.5975 -5.6875 10.875 C-2.39141811 7.34895891 -1.46719365 4.55602238 0 0 Z " fill="#C44162" transform="translate(278,317)"/>
<path d="M0 0 C0 0.66 0 1.32 0 2 C0.67546875 1.97679688 1.3509375 1.95359375 2.046875 1.9296875 C3.38492188 1.90261719 3.38492188 1.90261719 4.75 1.875 C6.07257813 1.84019531 6.07257813 1.84019531 7.421875 1.8046875 C10.1401489 2.01061734 11.63096259 2.72741299 14 4 C12.93676514 3.93941406 11.87353027 3.87882812 10.77807617 3.81640625 C6.78426986 3.58965685 2.79024335 3.36700468 -1.20385742 3.14550781 C-2.9233199 3.04959769 -4.64272308 2.95261774 -6.36206055 2.85449219 C-19.07729109 2.11281354 -19.07729109 2.11281354 -31.81054688 2.01367188 C-35.26169658 1.99212143 -38.59068192 1.51461405 -42 1 C-42 0.67 -42 0.34 -42 0 C-28.23620317 -1.76782712 -13.76379683 -1.76782712 0 0 Z " fill="#347C7E" transform="translate(271,77)"/>
<path d="M0 0 C0.33 0 0.66 0 1 0 C2.19388403 37.45176103 2.19388403 37.45176103 2 56 C2.99 56.33 3.98 56.66 5 57 C3.0625 57.5625 3.0625 57.5625 1 58 C0 57 0 57 -0.12025452 54.71580505 C-0.11803391 53.70542679 -0.11581329 52.69504852 -0.11352539 51.65405273 C-0.11344986 50.5129454 -0.11337433 49.37183807 -0.11329651 48.19615173 C-0.10813522 46.9545076 -0.10297394 45.71286346 -0.09765625 44.43359375 C-0.0962413 43.16983414 -0.09482635 41.90607452 -0.09336853 40.60401917 C-0.08870582 37.23875111 -0.0797148 33.8735501 -0.06866455 30.50830078 C-0.05844846 27.0765033 -0.05387049 23.64469891 -0.04882812 20.21289062 C-0.0377738 13.47524176 -0.0210171 6.73762475 0 0 Z " fill="#69133D" transform="translate(199,281)"/>
<path d="M0 0 C0.33 0.66 0.66 1.32 1 2 C2.32 1.67 3.64 1.34 5 1 C4.34 2.98 3.68 4.96 3 7 C3.99 6.34 4.98 5.68 6 5 C6.99 5 7.98 5 9 5 C9 5.66 9 6.32 9 7 C4.52941176 11 4.52941176 11 2 11 C2 11.66 2 12.32 2 13 C0.35 13.66 -1.3 14.32 -3 15 C-2.5547115 9.72684667 -1.91626837 4.98229776 0 0 Z " fill="#328385" transform="translate(73,411)"/>
<path d="M0 0 C0.74426239 0.02028259 1.48852478 0.04056519 2.25534058 0.0614624 C3.82386858 0.10692937 5.39225114 0.15768228 6.96044922 0.21337891 C9.3653656 0.29681179 11.77016541 0.35852837 14.17578125 0.41796875 C15.70056128 0.4648481 17.22530338 0.51298195 18.75 0.5625 C19.47083771 0.58032532 20.19167542 0.59815063 20.93435669 0.61651611 C26.01204079 0.81672829 26.01204079 0.81672829 28.2421875 3.046875 C23.50993222 3.07169319 18.77771529 3.08979083 14.04541016 3.10180664 C12.43733052 3.10681875 10.8292554 3.11363019 9.22119141 3.12231445 C6.90265789 3.13451726 4.58418491 3.14013464 2.265625 3.14453125 C1.19651382 3.15227318 1.19651382 3.15227318 0.10580444 3.16017151 C-3.95637679 3.16062255 -7.77269356 2.83463107 -11.7578125 2.046875 C-8.00185758 -0.4248169 -4.32117188 -0.15627252 0 0 Z " fill="#236164" transform="translate(237.7578125,420.953125)"/>
<path d="M0 0 C0.66 0 1.32 0 2 0 C2 11.88 2 23.76 2 36 C0.515 36.495 0.515 36.495 -1 37 C-0.67 24.79 -0.34 12.58 0 0 Z " fill="#90304B" transform="translate(199,189)"/>
<path d="M0 0 C-0.33 2.64 -0.66 5.28 -1 8 C-1.556875 8.103125 -2.11375 8.20625 -2.6875 8.3125 C-5.11825733 8.91402865 -5.11825733 8.91402865 -7.375 10.5625 C-10.47577231 12.26054198 -12.51778564 12.24294519 -16 12 C-4.72727273 0 -4.72727273 0 0 0 Z " fill="#337F81" transform="translate(429,75)"/>
<path d="M0 0 C0.66 0 1.32 0 2 0 C2.67310593 4.0614603 3.33735482 8.12432096 4 12.1875 C4.19078125 13.33798828 4.3815625 14.48847656 4.578125 15.67382812 C4.75859375 16.78564453 4.9390625 17.89746094 5.125 19.04296875 C5.29257813 20.06414795 5.46015625 21.08532715 5.6328125 22.13745117 C5.97414707 24.79845372 6.06884702 27.32142068 6 30 C5.34 30 4.68 30 4 30 C3.31661534 26.87842248 2.65651728 23.75232892 2 20.625 C1.80921875 19.75488281 1.6184375 18.88476562 1.421875 17.98828125 C0.16191376 11.91346811 -0.24024154 6.19789808 0 0 Z " fill="#2F7476" transform="translate(76,264)"/>
<path d="M0 0 C0.33 0 0.66 0 1 0 C0.50903291 4.33687594 -0.09679957 8.59206158 -0.9375 12.875 C-2.43782056 20.85038823 -3.16583407 28.933438 -4 37 C-4.66 37 -5.32 37 -6 37 C-6.02689216 35.52093108 -6.04634621 34.04172517 -6.0625 32.5625 C-6.07410156 31.73878906 -6.08570312 30.91507813 -6.09765625 30.06640625 C-6 28 -6 28 -5 27 C-4.79068103 24.83703727 -4.63202931 22.6690529 -4.5 20.5 C-4.11111111 14.11111111 -4.11111111 14.11111111 -3 13 C-2.76712992 11.31816052 -2.58735834 9.6287584 -2.4375 7.9375 C-2.31181641 6.55884766 -2.31181641 6.55884766 -2.18359375 5.15234375 C-2.12300781 4.44207031 -2.06242188 3.73179687 -2 3 C-1.34 3 -0.68 3 0 3 C0 2.01 0 1.02 0 0 Z " fill="#35716F" transform="translate(132,197)"/>
<path d="M0 0 C1.65 0 3.3 0 5 0 C1.19056924 4.14036587 -2.78593913 6.97238712 -7.625 9.8125 C-8.29273438 10.21919922 -8.96046875 10.62589844 -9.6484375 11.04492188 C-14.61495536 14 -14.61495536 14 -18 14 C-17.67 13.01 -17.34 12.02 -17 11 C-14.4375 9.8125 -14.4375 9.8125 -12 9 C-12 7.68 -12 6.36 -12 5 C-9.36 5.33 -6.72 5.66 -4 6 C-4 5.34 -4 4.68 -4 4 C-3.01 3.67 -2.02 3.34 -1 3 C-0.67 2.01 -0.34 1.02 0 0 Z " fill="#317779" transform="translate(357,389)"/>
<path d="M0 0 C0.33 0.99 0.66 1.98 1 3 C-1.64738916 4.4606285 -2.89448334 5 -6 5 C-6.33 5.66 -6.66 6.32 -7 7 C-7.33 6.34 -7.66 5.68 -8 5 C-9.89533342 4.53476937 -9.89533342 4.53476937 -12.0625 4.375 C-13.361875 4.25125 -14.66125 4.1275 -16 4 C-16 3.34 -16 2.68 -16 2 C-10.54538831 0.61470179 -5.63281599 -0.2396943 0 0 Z " fill="#AC445B" transform="translate(238,159)"/>
<path d="M0 0 C2.67927341 4.01891012 2.15601248 6.24161923 2 11 C2.66 11 3.32 11 4 11 C4 11.66 4 12.32 4 13 C4.85464844 13.04898437 5.70929688 13.09796875 6.58984375 13.1484375 C8.24693359 13.26058594 8.24693359 13.26058594 9.9375 13.375 C11.03964844 13.44460938 12.14179688 13.51421875 13.27734375 13.5859375 C14.62505859 13.79089844 14.62505859 13.79089844 16 14 C16.33 14.66 16.66 15.32 17 16 C5.68490113 16.2012567 5.68490113 16.2012567 1 15 C-0.44207941 12.11584117 -0.09394887 9.58278472 -0.0625 6.375 C-0.05347656 5.18648437 -0.04445312 3.99796875 -0.03515625 2.7734375 C-0.02355469 1.85820312 -0.01195312 0.94296875 0 0 Z " fill="#A23955" transform="translate(172,244)"/>
<path d="M0 0 C0.66 0.33 1.32 0.66 2 1 C-2.75 6.875 -2.75 6.875 -5 8 C-5.65555119 10.52733235 -5.65555119 10.52733235 -6 13 C-7.65 13.33 -9.3 13.66 -11 14 C-11.33 12.68 -11.66 11.36 -12 10 C-8.04 6.7 -4.08 3.4 0 0 Z " fill="#327E81" transform="translate(410,88)"/>
<path d="M0 0 C2.97 0 5.94 0 9 0 C9.66 1.32 10.32 2.64 11 4 C11.66 4.66 12.32 5.32 13 6 C10.93243723 8.7972908 9.85559629 9.02692273 6.3125 9.6875 C5.219375 9.790625 4.12625 9.89375 3 10 C4.375 8.5 4.375 8.5 6 7 C6.66 7 7.32 7 8 7 C8 6.34 8 5.68 8 5 C7.05125 4.731875 6.1025 4.46375 5.125 4.1875 C2 3 2 3 0 0 Z " fill="#BD3464" transform="translate(293,244)"/>
<path d="M0 0 C0.99 0.33 1.98 0.66 3 1 C0.69 4.63 -1.62 8.26 -4 12 C-7 11 -7 11 -8.6875 8.125 C-10 5 -10 5 -10 2 C-9.01 2.33 -8.02 2.66 -7 3 C-7 4.65 -7 6.3 -7 8 C-6.34 8 -5.68 8 -5 8 C-4.731875 7.4225 -4.46375 6.845 -4.1875 6.25 C-2.98280141 3.9674132 -1.59201885 2.0262058 0 0 Z " fill="#327477" transform="translate(347,135)"/>
<path d="M0 0 C3.63 0 7.26 0 11 0 C11 0.33 11 0.66 11 1 C-8.34042553 5.76595745 -8.34042553 5.76595745 -18 5 C-13.53362009 2.76681005 -10.96429512 1.88335856 -5.875 1.9375 C-4.77929688 1.94652344 -3.68359375 1.95554687 -2.5546875 1.96484375 C-1.71164062 1.97644531 -0.86859375 1.98804688 0 2 C0 1.34 0 0.68 0 0 Z " fill="#306B6A" transform="translate(292,417)"/>
<path d="M0 0 C0 3.21812786 -0.05758039 4.4664092 -2 7 C-4.32156597 7.40729228 -6.6568787 7.74438677 -9 8 C-9.33 8.66 -9.66 9.32 -10 10 C-11.32 10 -12.64 10 -14 10 C-12.64412646 5.93237939 -10.0515406 5.13665748 -6.4375 3.3125 C-5.82197266 2.99216797 -5.20644531 2.67183594 -4.57226562 2.34179688 C-3.0526445 1.55253629 -1.52688189 0.77512085 0 0 Z " fill="#307D7F" transform="translate(166,94)"/>
<path d="M0 0 C2.84562772 0.18263863 5.5609481 0.46831808 8.375 0.875 C9.90337717 1.08271569 11.43201724 1.28850781 12.9609375 1.4921875 C13.63946777 1.58870605 14.31799805 1.68522461 15.01708984 1.78466797 C17.33034225 2.07197283 17.33034225 2.07197283 21 2 C21.33 2.99 21.66 3.98 22 5 C13.65474478 5.51917486 6.08961486 3.95829294 -2 2 C-1.34 1.34 -0.68 0.68 0 0 Z " fill="#2B6F6E" transform="translate(203,417)"/>
<path d="M0 0 C0.33 0 0.66 0 1 0 C1.33 1.65 1.66 3.3 2 5 C2.33 5 2.66 5 3 5 C3 10.61 3 16.22 3 22 C2.34 22 1.68 22 1 22 C0.67 23.32 0.34 24.64 0 26 C0 17.42 0 8.84 0 0 Z " fill="#A04F62" transform="translate(219,288)"/>
<path d="M0 0 C0.66 0 1.32 0 2 0 C2 7.59 2 15.18 2 23 C1.01 23.33 0.02 23.66 -1 24 C-1.02893932 20.37501666 -1.04677792 16.75006287 -1.0625 13.125 C-1.07087891 12.09246094 -1.07925781 11.05992187 -1.08789062 9.99609375 C-1.09111328 9.00996094 -1.09433594 8.02382812 -1.09765625 7.0078125 C-1.10289307 6.09660645 -1.10812988 5.18540039 -1.11352539 4.24658203 C-1 2 -1 2 0 0 Z " fill="#4A898E" transform="translate(126,234)"/>
<path d="M0 0 C1.15224028 0.92961422 2.29659176 1.8690125 3.4375 2.8125 C4.07558594 3.33457031 4.71367188 3.85664063 5.37109375 4.39453125 C7 6 7 6 8 9 C6.71372289 10.17260611 5.42080217 11.3379283 4.125 12.5 C3.40570313 13.1496875 2.68640625 13.799375 1.9453125 14.46875 C0 16 0 16 -2 16 C-2 15.01 -2 14.02 -2 13 C-0.08512183 11.34043892 1.73576718 10.13211641 4 9 C3.67 7.35 3.34 5.7 3 4 C2.34 4 1.68 4 1 4 C0.34 4.66 -0.32 5.32 -1 6 C-0.67 4.02 -0.34 2.04 0 0 Z " fill="#3B7B7E" transform="translate(115,376)"/>
<path d="M0 0 C0.99 0.66 1.98 1.32 3 2 C2.690625 2.763125 2.38125 3.52625 2.0625 4.3125 C1.32106407 6.18789677 0.63771783 8.08684652 0 10 C-1.65 10 -3.3 10 -5 10 C-5.66 8.68 -6.32 7.36 -7 6 C-6.34 6 -5.68 6 -5 6 C-4.67 5.01 -4.34 4.02 -4 3 C-1.9375 1.3125 -1.9375 1.3125 0 0 Z " fill="#C74F69" transform="translate(214,165)"/>
<path d="M0 0 C0.99 0.33 1.98 0.66 3 1 C4.32152306 6.88678452 3.8741103 9.86766018 1 15 C0.01 15.33 -0.98 15.66 -2 16 C-1.85833643 14.08302063 -1.71150416 12.16642277 -1.5625 10.25 C-1.48128906 9.18265625 -1.40007812 8.1153125 -1.31640625 7.015625 C-1.05909227 4.56320038 -0.68187782 2.36078709 0 0 Z " fill="#307878" transform="translate(376,249)"/>
<path d="M0 0 C0.33 0 0.66 0 1 0 C1.33 1.98 1.66 3.96 2 6 C1.34 6 0.68 6 0 6 C0 17.88 0 29.76 0 42 C-0.33 42 -0.66 42 -1 42 C-1.33 28.8 -1.66 15.6 -2 2 C-1.34 2 -0.68 2 0 2 C0 1.34 0 0.68 0 0 Z " fill="#CB4F6B" transform="translate(220,180)"/>
<path d="M0 0 C0.66 0.33 1.32 0.66 2 1 C0.68 4.3 -0.64 7.6 -2 11 C-2.99 11 -3.98 11 -5 11 C-5 10.34 -5 9.68 -5 9 C-6.65 9.66 -8.3 10.32 -10 11 C-6.79239749 7.19364503 -3.59253891 3.45436433 0 0 Z " fill="#2B7476" transform="translate(374,117)"/>
<path d="M0 0 C0.33 0.99 0.66 1.98 1 3 C0.55269531 3.43570313 0.10539062 3.87140625 -0.35546875 4.3203125 C-4.14521536 8.05349573 -7.66459583 11.856013 -11 16 C-12.04449911 12.86650268 -11.93423645 12.01031744 -11 9 C-9.68 9 -8.36 9 -7 9 C-6.67 7.68 -6.34 6.36 -6 5 C-5.01 5 -4.02 5 -3 5 C-2.87625 4.360625 -2.7525 3.72125 -2.625 3.0625 C-2.41875 2.381875 -2.2125 1.70125 -2 1 C-1.34 0.67 -0.68 0.34 0 0 Z " fill="#336B6F" transform="translate(365,115)"/>
<path d="M0 0 C4.06372019 2.0318601 5.39757528 7.93751479 7 12 C7.8125 15.6875 7.8125 15.6875 8 18 C6.68 17.67 5.36 17.34 4 17 C3.87625 15.4840625 3.87625 15.4840625 3.75 13.9375 C3.34447177 10.908327 2.47918357 8.84435205 0.875 6.25 C0.25625 5.1775 -0.3625 4.105 -1 3 C-0.67 2.01 -0.34 1.02 0 0 Z " fill="#367F7E" transform="translate(144,331)"/>
<path d="M0 0 C-3.88476443 2.58984296 -7.39151186 2.99533003 -11.9375 3.75 C-13.15469727 3.97623047 -13.15469727 3.97623047 -14.39648438 4.20703125 C-15.18216797 4.33980469 -15.96785156 4.47257812 -16.77734375 4.609375 C-17.49140381 4.73280273 -18.20546387 4.85623047 -18.94116211 4.98339844 C-21.44433868 5.00358295 -22.86757008 4.25828659 -25 3 C-16.54704214 0.92686581 -8.71703754 -0.48032656 0 0 Z " fill="#2F6664" transform="translate(228,78)"/>
<path d="M0 0 C2.31625061 1.11777771 4.62784605 2.24374092 6.9375 3.375 C7.59685547 3.69210937 8.25621094 4.00921875 8.93554688 4.3359375 C13.88671875 6.7734375 13.88671875 6.7734375 15 9 C13.68 9.33 12.36 9.66 11 10 C11 9.34 11 8.68 11 8 C10.0925 7.87625 9.185 7.7525 8.25 7.625 C3.24415584 6.66233766 3.24415584 6.66233766 1 5 C0.61140671 3.34534471 0.27327991 1.67755983 0 0 Z " fill="#377C7A" transform="translate(192,392)"/>
<path d="M0 0 C1.11378736 3.31822704 0.87728255 5.24820779 -0.21484375 8.546875 C-0.48876953 9.39121094 -0.76269531 10.23554687 -1.04492188 11.10546875 C-1.48674805 12.41451172 -1.48674805 12.41451172 -1.9375 13.75 C-2.22818359 14.63816406 -2.51886719 15.52632812 -2.81835938 16.44140625 C-3.53639318 18.63082079 -4.26385523 20.81662189 -5 23 C-5.33 23 -5.66 23 -6 23 C-6 19.7 -6 16.4 -6 13 C-5.34 13 -4.68 13 -4 13 C-3.896875 12.154375 -3.79375 11.30875 -3.6875 10.4375 C-2.9171146 6.58557299 -1.63725486 3.55924969 0 0 Z " fill="#347275" transform="translate(421,99)"/>
<path d="M0 0 C1.15242188 0.10183594 2.30484375 0.20367187 3.4921875 0.30859375 C4.36101562 0.39238281 5.22984375 0.47617188 6.125 0.5625 C6.125 0.8925 6.125 1.2225 6.125 1.5625 C-1.20150983 2.62237432 -8.52471227 3.68046547 -15.875 4.5625 C-14.75 2.625 -14.75 2.625 -12.875 0.5625 C-8.4564853 -0.51643964 -4.50711447 -0.41391868 0 0 Z " fill="#256B6E" transform="translate(235.875,90.4375)"/>
<path d="M0 0 C0.99 0 1.98 0 3 0 C3.33 0.99 3.66 1.98 4 3 C2.34765625 5.91796875 2.34765625 5.91796875 0.0625 9.1875 C-0.32357422 9.74630859 -0.70964844 10.30511719 -1.10742188 10.88085938 C-2.06242753 12.26031198 -3.03004093 13.63102056 -4 15 C-4.62109375 13.15234375 -4.62109375 13.15234375 -5 11 C-3.67189785 9.32916181 -2.33827304 7.66270287 -1 6 C-0.74875174 3.33238236 -0.74875174 3.33238236 -1 1 C-0.67 0.67 -0.34 0.34 0 0 Z " fill="#337477" transform="translate(404,337)"/>
<path d="M0 0 C0.33 0.99 0.66 1.98 1 3 C-1.54782974 5.97246802 -4.45340883 7.41535288 -8 9 C-8.66 9 -9.32 9 -10 9 C-10 8.01 -10 7.02 -10 6 C-9.01 6 -8.02 6 -7 6 C-7 5.01 -7 4.02 -7 3 C-4.69 2.01 -2.38 1.02 0 0 Z " fill="#B9536F" transform="translate(239,161)"/>
<path d="M0 0 C0.33 0.66 0.66 1.32 1 2 C2.32 2 3.64 2 5 2 C5 1.34 5 0.68 5 0 C5.66 0 6.32 0 7 0 C6.50769231 5.53846154 6.50769231 5.53846154 3.9375 7.875 C2.9784375 8.431875 2.9784375 8.431875 2 9 C2 8.01 2 7.02 2 6 C1.34 6 0.68 6 0 6 C-0.38218767 4.34385343 -0.71395102 2.67542976 -1 1 C-0.67 0.67 -0.34 0.34 0 0 Z " fill="#B8435D" transform="translate(209,232)"/>
<path d="M0 0 C2.5 1.375 2.5 1.375 5 3 C5 3.66 5 4.32 5 5 C5.639375 5.2475 6.27875 5.495 6.9375 5.75 C9 7 9 7 9.75 9.125 C9.87375 10.053125 9.87375 10.053125 10 11 C7.0625 10.1875 7.0625 10.1875 4 9 C3.67 8.01 3.34 7.02 3 6 C2.01 5.67 1.02 5.34 0 5 C0 3.35 0 1.7 0 0 Z " fill="#388280" transform="translate(176,379)"/>
<path d="M0 0 C1.47968324 0.14049518 2.95874516 0.28754826 4.4375 0.4375 C5.67306641 0.55931641 5.67306641 0.55931641 6.93359375 0.68359375 C9 1 9 1 10 2 C10.07271741 4.35313555 10.08370868 6.70833668 10.0625 9.0625 C10.05347656 10.35285156 10.04445313 11.64320313 10.03515625 12.97265625 C10.02355469 13.97167969 10.01195312 14.97070312 10 16 C9.67 16 9.34 16 9 16 C8.67 11.38 8.34 6.76 8 2 C3.13867505 2.49152482 3.13867505 2.49152482 1 5 C0.67 3.35 0.34 1.7 0 0 Z " fill="#903144" transform="translate(318,241)"/>
<path d="M0 0 C0.33 1.32 0.66 2.64 1 4 C1.54140625 3.83628906 2.0828125 3.67257812 2.640625 3.50390625 C5.40222593 2.91409413 7.92818139 2.90390692 10.75 2.9375 C11.73484375 2.94652344 12.7196875 2.95554687 13.734375 2.96484375 C14.85585938 2.98224609 14.85585938 2.98224609 16 3 C10.69672257 5.74307453 6.90269168 6.19040941 1 6 C0 5 0 5 -0.0625 2.4375 C-0.041875 1.633125 -0.02125 0.82875 0 0 Z " fill="#8E3051" transform="translate(261,336)"/>
<path d="M0 0 C0.66 0 1.32 0 2 0 C2.48452463 6.94485303 0.69287491 13.2990368 -1 20 C-1.33 20 -1.66 20 -2 20 C-2.22731216 13.06697907 -1.42002108 6.7831364 0 0 Z " fill="#286669" transform="translate(78,209)"/>
<path d="M0 0 C1 2 1 2 0.9375 3.8125 C-0.50315446 7.17402707 -3.15503151 8.79369791 -6 11 C-6.66 11.66 -7.32 12.32 -8 13 C-7.48118887 8.8275894 -6.28848726 6.74583179 -3.4375 3.6875 C-2.79683594 2.99011719 -2.15617187 2.29273438 -1.49609375 1.57421875 C-1.00238281 1.05472656 -0.50867188 0.53523437 0 0 Z " fill="#307C7D" transform="translate(120,128)"/>
<path d="M0 0 C0.99 0.495 0.99 0.495 2 1 C2 1.66 2 2.32 2 3 C2.66 3 3.32 3 4 3 C5.33583899 7.84241633 6.25328119 11.93437617 6 17 C3.38832897 14.38832897 2.92868518 12.0278941 1.875 8.5 C1.52179688 7.3346875 1.16859375 6.169375 0.8046875 4.96875 C0 2 0 2 0 0 Z " fill="#2F696C" transform="translate(83,303)"/>
<path d="M0 0 C0.66 0 1.32 0 2 0 C1.49396008 2.16874252 1.00016187 3.99967627 0 6 C0.66 6.33 1.32 6.66 2 7 C0.02 7.66 -1.96 8.32 -4 9 C-4.66 8.34 -5.32 7.68 -6 7 C-5.04882866 5.8274869 -4.08882991 4.66212985 -3.125 3.5 C-2.59132813 2.8503125 -2.05765625 2.200625 -1.5078125 1.53125 C-0.76144531 0.77328125 -0.76144531 0.77328125 0 0 Z " fill="#BB3E5A" transform="translate(291,256)"/>
<path d="M0 0 C0.66 0.33 1.32 0.66 2 1 C2 1.99 2 2.98 2 4 C0.34467377 5.01866229 -1.32260138 6.01810813 -3 7 C-3.33 7.99 -3.66 8.98 -4 10 C-4.99 9.67 -5.98 9.34 -7 9 C-5.64978174 4.58110387 -3.73884332 2.65654657 0 0 Z " fill="#318488" transform="translate(136,113)"/>
<path d="M0 0 C1.32 0.66 2.64 1.32 4 2 C4 2.99 4 3.98 4 5 C3.34 5 2.68 5 2 5 C1.67 6.98 1.34 8.96 1 11 C0.01 10.67 -0.98 10.34 -2 10 C-1.34 6.7 -0.68 3.4 0 0 Z " fill="#24797C" transform="translate(90,347)"/>
<path d="M0 0 C0.33 0 0.66 0 1 0 C0.59683075 6.31631828 -1.71232131 10.64993984 -5 16 C-5.66 16 -6.32 16 -7 16 C-5.125 10.25 -5.125 10.25 -4 8 C-3.34 8 -2.68 8 -2 8 C-2 6.68 -2 5.36 -2 4 C-1.34 4 -0.68 4 0 4 C0 2.68 0 1.36 0 0 Z " fill="#407478" transform="translate(415,320)"/>
<path d="M0 0 C0.66 0 1.32 0 2 0 C2.33951619 1.56116819 2.67132544 3.12401338 3 4.6875 C3.185625 5.55761719 3.37125 6.42773438 3.5625 7.32421875 C3.98972047 9.93712964 4.07616201 12.35813038 4 15 C3.34 15 2.68 15 2 15 C0.53329887 9.77487721 -0.22577402 5.4185766 0 0 Z " fill="#276D72" transform="translate(78,279)"/>
<path d="M0 0 C-4.61496078 4.03809068 -9.92852877 6 -16 6 C-16 5.34 -16 4.68 -16 4 C-14.274773 3.32320342 -12.54461061 2.65898 -10.8125 2 C-9.84957031 1.62875 -8.88664062 1.2575 -7.89453125 0.875 C-5.07817642 0.02363228 -2.91835561 -0.17072647 0 0 Z " fill="#397476" transform="translate(329,408)"/>
<path d="M0 0 C0.99 0.33 1.98 0.66 3 1 C1.73548068 2.31858428 0.46314525 3.62967631 -0.8125 4.9375 C-1.52019531 5.66839844 -2.22789062 6.39929688 -2.95703125 7.15234375 C-5 9 -5 9 -8 10 C-7.67 8.35 -7.34 6.7 -7 5 C-5.824375 4.87625 -5.824375 4.87625 -4.625 4.75 C-1.85250896 4.27193661 -1.85250896 4.27193661 -0.6875 1.9375 C-0.460625 1.298125 -0.23375 0.65875 0 0 Z " fill="#287274" transform="translate(377,374)"/>
<path d="M0 0 C3.27286682 2.7819368 4.96427697 6.27954067 7 10 C6.01 10 5.02 10 4 10 C3.34 8.35 2.68 6.7 2 5 C1.01 5.33 0.02 5.66 -1 6 C-1.625 4.125 -1.625 4.125 -2 2 C-1.34 1.34 -0.68 0.68 0 0 Z " fill="#418889" transform="translate(92,343)"/>
<path d="M0 0 C0.66 0 1.32 0 2 0 C1.94004678 1.79260132 1.8512759 3.58425795 1.75 5.375 C1.70359375 6.37273437 1.6571875 7.37046875 1.609375 8.3984375 C1 11 1 11 -1.046875 12.3515625 C-1.69140625 12.56554687 -2.3359375 12.77953125 -3 13 C-2.68817931 11.58318366 -2.37551263 10.16655349 -2.0625 8.75 C-1.88847656 7.96109375 -1.71445312 7.1721875 -1.53515625 6.359375 C-1.052444 4.23121297 -0.53836822 2.11467158 0 0 Z " fill="#3A7675" transform="translate(371,272)"/>
<path d="M0 0 C0.66 0 1.32 0 2 0 C2.33 1.65 2.66 3.3 3 5 C2.34 5 1.68 5 1 5 C0.34 6.65 -0.32 8.3 -1 10 C-2.42944945 7.64561267 -3.08661261 6.51967567 -2.625 3.75 C-2.41875 3.1725 -2.2125 2.595 -2 2 C-1.34 2 -0.68 2 0 2 C0 1.34 0 0.68 0 0 Z " fill="#2F7E7E" transform="translate(84,192)"/>
<path d="M0 0 C0.33 0.66 0.66 1.32 1 2 C-1.25 4.5625 -1.25 4.5625 -4 7 C-6.3125 6.8125 -6.3125 6.8125 -8 6 C-7.67 5.01 -7.34 4.02 -7 3 C-3.4375 1.3125 -3.4375 1.3125 0 0 Z " fill="#347C7D" transform="translate(296,398)"/>
<path d="M0 0 C0.99 0.33 1.98 0.66 3 1 C2.40072174 4.35595828 1.15377564 6.37801226 -1 9 C-1 8.01 -1 7.02 -1 6 C-1.66 6 -2.32 6 -3 6 C-1.125 1.125 -1.125 1.125 0 0 Z " fill="#BA4162" transform="translate(285,173)"/>
<path d="M0 0 C2.31 0 4.62 0 7 0 C7.66 1.32 8.32 2.64 9 4 C5.7 4 2.4 4 -1 4 C-0.34 3.67 0.32 3.34 1 3 C0.67 2.01 0.34 1.02 0 0 Z " fill="#CF4160" transform="translate(223,163)"/>
<path d="M0 0 C1.65 0 3.3 0 5 0 C1.56638098 3.63559661 -1.7973607 6.36113346 -6 9 C-6.66 8.67 -7.32 8.34 -8 8 C-7.67 7.34 -7.34 6.68 -7 6 C-6.01 6 -5.02 6 -4 6 C-4 5.34 -4 4.68 -4 4 C-3.01 3.67 -2.02 3.34 -1 3 C-0.67 2.01 -0.34 1.02 0 0 Z " fill="#346C6C" transform="translate(357,389)"/>
<path d="M0 0 C0.66 0.33 1.32 0.66 2 1 C2.59355614 3.64860427 2.74209269 6.29197322 3 9 C1.35 9.33 -0.3 9.66 -2 10 C-1.34 6.7 -0.68 3.4 0 0 Z " fill="#287274" transform="translate(82,377)"/>
<path d="M0 0 C0.99 0.66 1.98 1.32 3 2 C0.34345343 5.73884332 -1.58110387 7.64978174 -6 9 C-5.67 7.68 -5.34 6.36 -5 5 C-3.35 4.67 -1.7 4.34 0 4 C0 2.68 0 1.36 0 0 Z " fill="#AA435A" transform="translate(211,327)"/>
<path d="M0 0 C0.66 0 1.32 0 2 0 C2.33 0.99 2.66 1.98 3 3 C2.01 4.485 2.01 4.485 1 6 C0.34 6 -0.32 6 -1 6 C-0.67 6.99 -0.34 7.98 0 9 C-0.99 9.99 -1.98 10.98 -3 12 C-4 10 -4 10 -3.22265625 7.6171875 C-2.83980469 6.71226562 -2.45695312 5.80734375 -2.0625 4.875 C-1.68222656 3.96492188 -1.30195313 3.05484375 -0.91015625 2.1171875 C-0.60980469 1.41851562 -0.30945313 0.71984375 0 0 Z " fill="#2C7C7C" transform="translate(356,323)"/>
<path d="M0 0 C0.99 0 1.98 0 3 0 C3.33 3.96 3.66 7.92 4 12 C3.01 12.495 3.01 12.495 2 13 C1.34 8.71 0.68 4.42 0 0 Z " fill="#399394" transform="translate(422,276)"/>
<path d="M0 0 C4.38889325 0.66498383 7.9811485 2.18757677 12 4 C12 4.33 12 4.66 12 5 C7.82851735 5.19402245 4.71055417 5.01430083 1 3 C0.67 2.01 0.34 1.02 0 0 Z " fill="#32777A" transform="translate(316,87)"/>
<path d="M0 0 C0.33 0 0.66 0 1 0 C1 2.97 1 5.94 1 9 C-0.32 9.33 -1.64 9.66 -3 10 C-4.28436734 11.9837767 -4.28436734 11.9837767 -5 14 C-5.66 13.67 -6.32 13.34 -7 13 C-6.57847656 12.39671875 -6.15695312 11.7934375 -5.72265625 11.171875 C-5.17480469 10.37265625 -4.62695312 9.5734375 -4.0625 8.75 C-3.51722656 7.96109375 -2.97195313 7.1721875 -2.41015625 6.359375 C-1.10377559 4.17363007 -0.45019489 2.4846199 0 0 Z " fill="#A14257" transform="translate(278,317)"/>
<path d="M0 0 C0.66 0 1.32 0 2 0 C2.66 2.97 3.32 5.94 4 9 C3.34 9 2.68 9 2 9 C2 9.66 2 10.32 2 11 C1.34 11 0.68 11 0 11 C0 7.37 0 3.74 0 0 Z " fill="#3C8280" transform="translate(131,292)"/>
<path d="M0 0 C1.32 0.99 2.64 1.98 4 3 C1.93243723 5.7972908 0.85559629 6.02692273 -2.6875 6.6875 C-3.780625 6.790625 -4.87375 6.89375 -6 7 C-4.625 5.5 -4.625 5.5 -3 4 C-2.34 4 -1.68 4 -1 4 C-1.33 3.01 -1.66 2.02 -2 1 C-1.34 0.67 -0.68 0.34 0 0 Z " fill="#AF3759" transform="translate(302,247)"/>
<path d="M0 0 C0.99 0.33 1.98 0.66 3 1 C1.85793642 2.50287218 0.71125043 4.00223284 -0.4375 5.5 C-1.39462891 6.75296875 -1.39462891 6.75296875 -2.37109375 8.03125 C-2.90863281 8.6809375 -3.44617188 9.330625 -4 10 C-4.33 10 -4.66 10 -5 10 C-5 8.35 -5 6.7 -5 5 C-4.34 4.67 -3.68 4.34 -3 4 C-2.67 3.01 -2.34 2.02 -2 1 C-1.34 0.67 -0.68 0.34 0 0 Z " fill="#346E70" transform="translate(162,133)"/>
<path d="M0 0 C0.66 0.99 1.32 1.98 2 3 C1.01 3.33 0.02 3.66 -1 4 C-1 4.66 -1 5.32 -1 6 C-2.98 6.33 -4.96 6.66 -7 7 C-5.54744301 3.17053157 -3.57104439 1.87949705 0 0 Z " fill="#367272" transform="translate(150,103)"/>
<path d="M0 0 C6.75479274 -0.7342166 11.18524285 1.72408048 17 5 C15 6 15 6 11.5234375 5.00390625 C10.13802064 4.53099953 8.75528453 4.05018356 7.375 3.5625 C6.31539063 3.19801758 6.31539063 3.19801758 5.234375 2.82617188 C3.48726713 2.22412795 1.74332214 1.61291983 0 1 C0 0.67 0 0.34 0 0 Z " fill="#2B6466" transform="translate(274,93)"/>
<path d="M0 0 C3.62685461 -0.20149192 5.91228852 0.04444939 9 2 C10.75 3.625 10.75 3.625 12 5 C7.6822542 4.49202991 3.96697886 3.80317221 0 2 C0 1.34 0 0.68 0 0 Z " fill="#347071" transform="translate(181,411)"/>
<path d="M0 0 C1.65 0.33 3.3 0.66 5 1 C2.53698577 3.46301423 0.72639964 3.76766521 -2.625 4.625 C-3.62789062 4.88539062 -4.63078125 5.14578125 -5.6640625 5.4140625 C-6.43492187 5.60742188 -7.20578125 5.80078125 -8 6 C-8 5.34 -8 4.68 -8 4 C-5.09399739 2.74335022 -3.20395416 2 0 2 C0 1.34 0 0.68 0 0 Z " fill="#296E75" transform="translate(214,94)"/>
<path d="M0 0 C3.28788824 3.11016455 5.83735988 6.01618925 8 10 C5.83125748 9.49396008 4.00032373 9.00016187 2 8 C1.3671875 6.15234375 1.3671875 6.15234375 0.875 3.9375 C0.70742187 3.20402344 0.53984375 2.47054688 0.3671875 1.71484375 C0.24601563 1.14894531 0.12484375 0.58304687 0 0 Z " fill="#3E7879" transform="translate(160,360)"/>
<path d="M0 0 C0.66 0 1.32 0 2 0 C1.71640113 1.4391134 1.42278601 2.87625518 1.125 4.3125 C0.88136719 5.51326172 0.88136719 5.51326172 0.6328125 6.73828125 C0 9 0 9 -2 12 C-3.01911045 8.10885099 -3.16782969 6.39403493 -1.5625 2.625 C-1.046875 1.75875 -0.53125 0.8925 0 0 Z " fill="#387273" transform="translate(136,181)"/>
<path d="M0 0 C3.63 0 7.26 0 11 0 C11 0.33 11 0.66 11 1 C5.77487721 2.46670113 1.4185766 3.22577402 -4 3 C-2.68 2.67 -1.36 2.34 0 2 C0 1.34 0 0.68 0 0 Z " fill="#246166" transform="translate(292,417)"/>
<path d="M0 0 C0.66 0.99 1.32 1.98 2 3 C1.34 4.32 0.68 5.64 0 7 C-0.66 7 -1.32 7 -2 7 C-2 8.32 -2 9.64 -2 11 C-2.99 11.33 -3.98 11.66 -5 12 C-3.68938409 7.76570244 -2.05643741 3.92592596 0 0 Z " fill="#3F7476" transform="translate(350,338)"/>
<path d="M0 0 C1.32 0 2.64 0 4 0 C4 0.99 4 1.98 4 3 C3.34 3 2.68 3 2 3 C1.34 4.32 0.68 5.64 0 7 C-0.66 6.67 -1.32 6.34 -2 6 C-1.49396008 3.83125748 -1.00016187 2.00032373 0 0 Z " fill="#367F80" transform="translate(345,155)"/>
<path d="M0 0 C1.98 0.99 1.98 0.99 4 2 C4 2.66 4 3.32 4 4 C4.66 4 5.32 4 6 4 C5.67 5.65 5.34 7.3 5 9 C0.57142857 3.85714286 0.57142857 3.85714286 0 0 Z " fill="#2C6D6D" transform="translate(100,343)"/>
<path d="M0 0 C0.33 0 0.66 0 1 0 C1 1.98 1 3.96 1 6 C0.34 6 -0.32 6 -1 6 C-1.33 7.32 -1.66 8.64 -2 10 C-2.66 10 -3.32 10 -4 10 C-3.52449439 8.51965236 -3.04448784 7.04074979 -2.5625 5.5625 C-2.29566406 4.73878906 -2.02882813 3.91507813 -1.75390625 3.06640625 C-1 1 -1 1 0 0 Z " fill="#2D7978" transform="translate(92,169)"/>
<path d="M0 0 C1.32 0.33 2.64 0.66 4 1 C1.19195732 3.96404505 -1.18315774 6.44499019 -5 8 C-5.33 7.34 -5.66 6.68 -6 6 C-5.01 6 -4.02 6 -3 6 C-2.690625 5.38125 -2.38125 4.7625 -2.0625 4.125 C-1.375 2.75 -0.6875 1.375 0 0 Z " fill="#347272" transform="translate(185,109)"/>
<path d="M0 0 C-0.33 2.31 -0.66 4.62 -1 7 C-1.33 6.34 -1.66 5.68 -2 5 C-4.01669827 3.86649466 -4.01669827 3.86649466 -6 3 C-2.25 0 -2.25 0 0 0 Z " fill="#3A7377" transform="translate(429,75)"/>
<path d="M0 0 C0.33 0.99 0.66 1.98 1 3 C1.66 3.33 2.32 3.66 3 4 C1.02 6.31 -0.96 8.62 -3 11 C-3.33 10.01 -3.66 9.02 -4 8 C-3.34 8 -2.68 8 -2 8 C-1.7834375 7.13375 -1.7834375 7.13375 -1.5625 6.25 C-1.04166667 4.16666667 -0.52083333 2.08333333 0 0 Z " fill="#3B6E6F" transform="translate(396,350)"/>
<path d="M0 0 C0.66 0 1.32 0 2 0 C1.67 3.3 1.34 6.6 1 10 C0.34 10 -0.32 10 -1 10 C-1.02689216 8.52093108 -1.04634621 7.04172517 -1.0625 5.5625 C-1.07410156 4.73878906 -1.08570312 3.91507813 -1.09765625 3.06640625 C-1 1 -1 1 0 0 Z " fill="#477B7E" transform="translate(127,224)"/>
<path d="M0 0 C0.66 0.33 1.32 0.66 2 1 C0.35 2.98 -1.3 4.96 -3 7 C-4.32 6.67 -5.64 6.34 -7 6 C-4.69 4.02 -2.38 2.04 0 0 Z " fill="#317677" transform="translate(410,88)"/>
<path d="M0 0 C4.455 0.99 4.455 0.99 9 2 C9 2.66 9 3.32 9 4 C3.375 4.25 3.375 4.25 0 2 C0 1.34 0 0.68 0 0 Z " fill="#2F7C7C" transform="translate(303,83)"/>
<path d="M0 0 C2 3 2 3 1.75 6.0625 C1 9 1 9 -1 11 C-2.41687119 6.74938644 -1.19320039 4.28148375 0 0 Z " fill="#2C6870" transform="translate(85,366)"/>
<path d="M0 0 C0.99 0.66 1.98 1.32 3 2 C1.824375 2.680625 1.824375 2.680625 0.625 3.375 C-2.03698031 4.88428742 -2.03698031 4.88428742 -4 7 C-4.33 5.35 -4.66 3.7 -5 2 C-2.6875 0.875 -2.6875 0.875 0 0 Z " fill="#BD586E" transform="translate(266,333)"/>
<path d="M0 0 C0.33 0 0.66 0 1 0 C1.390625 5.859375 1.390625 5.859375 1 8 C-0.32 9.32 -1.64 10.64 -3 12 C-2.01 8.04 -1.02 4.08 0 0 Z " fill="#367373" transform="translate(360,310)"/>
<path d="M0 0 C2.475 0.495 2.475 0.495 5 1 C5 1.66 5 2.32 5 3 C5.66 3 6.32 3 7 3 C6.67 4.32 6.34 5.64 6 7 C4.02 4.69 2.04 2.38 0 0 Z " fill="#3F7C7F" transform="translate(362,234)"/>
<path d="M0 0 C3.7952131 1.49097658 5.61042731 3.75700849 8 7 C5 7 5 7 2.3125 4.625 C0 2 0 2 0 0 Z " fill="#3D9FA0" transform="translate(353,224)"/>
<path d="M0 0 C0.33 1.32 0.66 2.64 1 4 C0.01 4.495 0.01 4.495 -1 5 C-1.65213292 7.02463255 -1.65213292 7.02463255 -2 9 C-2.99 9 -3.98 9 -5 9 C-3.7508258 5.54074837 -2.32472205 2.85306797 0 0 Z " fill="#A53C5E" transform="translate(207,172)"/>
<path d="M0 0 C0.66 0.33 1.32 0.66 2 1 C1.37240135 3.92879371 0.41377341 6.36095629 -1 9 C-1.33 9 -1.66 9 -2 9 C-2.25 3.375 -2.25 3.375 0 0 Z " fill="#32797C" transform="translate(144,161)"/>
<path d="M0 0 C1.32 0 2.64 0 4 0 C3.60196439 2.88575819 3.20990931 3.82189513 0.9375 5.75 C0.298125 6.1625 -0.34125 6.575 -1 7 C-0.67 4.69 -0.34 2.38 0 0 Z " fill="#337A7E" transform="translate(354,124)"/>
<path d="M0 0 C0.66 0 1.32 0 2 0 C2 0.99 2 1.98 2 3 C2.66 3.33 3.32 3.66 4 4 C2.1875 6 2.1875 6 0 8 C-0.99 8 -1.98 8 -3 8 C-3 7.34 -3 6.68 -3 6 C-2.01 6 -1.02 6 0 6 C0 4.02 0 2.04 0 0 Z " fill="#2F777B" transform="translate(199,97)"/>
<path d="M0 0 C0.90105469 0.19464844 1.80210937 0.38929687 2.73046875 0.58984375 C3.41753906 0.74582031 4.10460937 0.90179688 4.8125 1.0625 C4.8125 1.3925 4.8125 1.7225 4.8125 2.0625 C3.02116022 2.11641993 1.22936101 2.15525571 -0.5625 2.1875 C-1.56023437 2.21070312 -2.55796875 2.23390625 -3.5859375 2.2578125 C-6.1875 2.0625 -6.1875 2.0625 -8.1875 0.0625 C-4.80475734 -1.06508089 -3.41971777 -0.75500262 0 0 Z " fill="#2C7777" transform="translate(297.1875,80.9375)"/>
<path d="M0 0 C-1.41199578 0.39222105 -2.82992764 0.76311059 -4.25 1.125 C-5.03890625 1.33382812 -5.8278125 1.54265625 -6.640625 1.7578125 C-9.4203071 2.04314411 -10.65887549 1.44977894 -13 0 C-11.39950296 -0.39036513 -9.79437629 -0.76178619 -8.1875 -1.125 C-7.29417969 -1.33382812 -6.40085938 -1.54265625 -5.48046875 -1.7578125 C-3 -2 -3 -2 0 0 Z " fill="#356E70" transform="translate(216,81)"/>
<path d="M0 0 C0.33 1.32 0.66 2.64 1 4 C-1.375 5.5625 -1.375 5.5625 -4 7 C-4.66 6.67 -5.32 6.34 -6 6 C-4.02 4.02 -2.04 2.04 0 0 Z " fill="#2C6D6E" transform="translate(329,372)"/>
<path d="M0 0 C0.33 0 0.66 0 1 0 C1.19491452 1.45736087 1.38069358 2.91594593 1.5625 4.375 C1.66691406 5.18710937 1.77132813 5.99921875 1.87890625 6.8359375 C2 9 2 9 1 11 C0.34 11 -0.32 11 -1 11 C-1.125 3.375 -1.125 3.375 0 0 Z " fill="#318284" transform="translate(422,293)"/>
<path d="M0 0 C1.32 0.33 2.64 0.66 4 1 C3.25 5.75 3.25 5.75 1 8 C0.67 5.36 0.34 2.72 0 0 Z " fill="#29807F" transform="translate(146,152)"/>
<path d="M0 0 C2.3125 0.125 2.3125 0.125 5 1 C6.8125 4.0625 6.8125 4.0625 8 7 C4.2047869 5.50902342 2.38957269 3.24299151 0 0 Z " fill="#2E5A5C" transform="translate(122,374)"/>
<path d="M0 0 C2.62187494 1.04874998 3.79371361 1.64931313 5.25 4.125 C5.4975 4.74375 5.745 5.3625 6 6 C5.01 6.33 4.02 6.66 3 7 C0 2.25 0 2.25 0 0 Z " fill="#3C7D7F" transform="translate(410,245)"/>
<path d="M0 0 C0.66 0 1.32 0 2 0 C2 3.3 2 6.6 2 10 C-1 6 -1 6 -0.6875 2.75 C-0.460625 1.8425 -0.23375 0.935 0 0 Z " fill="#47898B" transform="translate(387,208)"/>
<path d="M0 0 C0.66 1.32 1.32 2.64 2 4 C1.01 5.485 1.01 5.485 0 7 C-0.99 7 -1.98 7 -3 7 C-1.125 1.125 -1.125 1.125 0 0 Z " fill="#2B7273" transform="translate(100,154)"/>
<path d="M0 0 C0.33 1.32 0.66 2.64 1 4 C0.34 4 -0.32 4 -1 4 C-1 5.65 -1 7.3 -1 9 C-1.99 9 -2.98 9 -4 9 C-2.94124926 5.59687262 -1.99097846 2.98646769 0 0 Z " fill="#397273" transform="translate(351,144)"/>
<path d="M0 0 C0.625 1.8125 0.625 1.8125 1 4 C0.01 5.485 0.01 5.485 -1 7 C-2.32 6.67 -3.64 6.34 -5 6 C-3.35 4.02 -1.7 2.04 0 0 Z " fill="#3C898D" transform="translate(111,138)"/>
<path d="M0 0 C2.31 0 4.62 0 7 0 C7.33 1.65 7.66 3.3 8 5 C4.62496331 3.8141763 2.35277269 2.72426311 0 0 Z " fill="#327174" transform="translate(302,104)"/>
<path d="M0 0 C0.99 0 1.98 0 3 0 C3 0.66 3 1.32 3 2 C3.66 2.33 4.32 2.66 5 3 C4.34 3 3.68 3 3 3 C2.67 4.65 2.34 6.3 2 8 C1.67 8 1.34 8 1 8 C0.67 5.36 0.34 2.72 0 0 Z " fill="#378089" transform="translate(418,96)"/>
<path d="M0 0 C0.99 0.66 1.98 1.32 3 2 C-3.625 2.25 -3.625 2.25 -7 0 C-4.28569464 -1.35715268 -2.88661718 -0.77445827 0 0 Z " fill="#296265" transform="translate(208,418)"/>
<path d="M0 0 C0 0.66 0 1.32 0 2 C-1.62626404 3.38232443 -3.2925002 4.71937515 -5 6 C-5.66 5.67 -6.32 5.34 -7 5 C-5.64703851 0.94111554 -4.27479763 0 0 0 Z " fill="#3C676E" transform="translate(82,416)"/>
<path d="M0 0 C2.97 0.33 5.94 0.66 9 1 C9 1.99 9 2.98 9 4 C6.03 3.01 3.06 2.02 0 1 C0 0.67 0 0.34 0 0 Z " fill="#336169" transform="translate(171,408)"/>
<path d="M0 0 C0.99 0.66 1.98 1.32 3 2 C1.02 3.32 -0.96 4.64 -3 6 C-3.33 4.68 -3.66 3.36 -4 2 C-2.68 2 -1.36 2 0 2 C0 1.34 0 0.68 0 0 Z " fill="#3F7A7B" transform="translate(94,404)"/>
<path d="M0 0 C1.32 0 2.64 0 4 0 C4 0.66 4 1.32 4 2 C4.66 2 5.32 2 6 2 C6.66 3.32 7.32 4.64 8 6 C4.08597051 4.73058503 2.20927127 3.48832306 0 0 Z " fill="#2E7377" transform="translate(141,390)"/>
<path d="M0 0 C2.97 0.495 2.97 0.495 6 1 C6.33 2.65 6.66 4.3 7 6 C1.125 2.25 1.125 2.25 0 0 Z " fill="#2D7178" transform="translate(133,384)"/>
<path d="M0 0 C2.475 0.495 2.475 0.495 5 1 C5 2.32 5 3.64 5 5 C2.525 4.01 2.525 4.01 0 3 C0 2.01 0 1.02 0 0 Z " fill="#49868A" transform="translate(129,379)"/>
<path d="M0 0 C0 2.31 0 4.62 0 7 C-0.66 7 -1.32 7 -2 7 C-2.66 5.02 -3.32 3.04 -4 1 C-2 0 -2 0 0 0 Z " fill="#2A7275" transform="translate(93,320)"/>
<path d="M0 0 C2 1 4 2 6 3 C6.625 5.0625 6.625 5.0625 7 7 C3.17053157 5.54744301 1.87949705 3.57104439 0 0 Z " fill="#347278" transform="translate(312,109)"/>
<path d="M0 0 C1.98 0.66 3.96 1.32 6 2 C6 2.99 6 3.98 6 5 C4.02 4.34 2.04 3.68 0 3 C0 2.01 0 1.02 0 0 Z " fill="#317777" transform="translate(340,98)"/>
<path d="M0 0 C0.66 0.33 1.32 0.66 2 1 C-3.75 6 -3.75 6 -6 6 C-6 5.01 -6 4.02 -6 3 C-4.03533587 1.93224776 -2.03144641 0.93446535 0 0 Z " fill="#336869" transform="translate(119,386)"/>
<path d="M0 0 C0.33 0.66 0.66 1.32 1 2 C-0.98 4.97 -0.98 4.97 -3 8 C-3.99 7.67 -4.98 7.34 -6 7 C-4.02 4.69 -2.04 2.38 0 0 Z " fill="#356C6E" transform="translate(336,363)"/>
<path d="M0 0 C4.875 4.75 4.875 4.75 6 7 C4.125 6.6875 4.125 6.6875 2 6 C0 3 0 3 0 0 Z " fill="#357B7D" transform="translate(106,365)"/>
<path d="M0 0 C0.99 0.33 1.98 0.66 3 1 C1.02 3.97 1.02 3.97 -1 7 C-1.625 5.1875 -1.625 5.1875 -2 3 C-1.34 2.01 -0.68 1.02 0 0 Z " fill="#357A78" transform="translate(340,357)"/>
<path d="M0 0 C0.66 0 1.32 0 2 0 C1.67 1.32 1.34 2.64 1 4 C-0.65 4.33 -2.3 4.66 -4 5 C-2.71937515 3.2925002 -1.38232443 1.62626404 0 0 Z " fill="#B6357C" transform="translate(291,256)"/>
<path d="M0 0 C3 3 3 3 3.1875 5.6875 C3.0946875 6.8321875 3.0946875 6.8321875 3 8 C2.01 8.33 1.02 8.66 0 9 C0 6.03 0 3.06 0 0 Z " fill="#5C9C9C" transform="translate(125,249)"/>
<path d="M0 0 C0.99 0.33 1.98 0.66 3 1 C0.03 3.475 0.03 3.475 -3 6 C-2.625 3.5625 -2.625 3.5625 -2 1 C-1.34 0.67 -0.68 0.34 0 0 Z " fill="#35696B" transform="translate(176,118)"/>
<path d="M0 0 C0.66 0.33 1.32 0.66 2 1 C2 1.99 2 2.98 2 4 C0.02 4.99 0.02 4.99 -2 6 C-2 2 -2 2 0 0 Z " fill="#2F7676" transform="translate(136,113)"/>
<path d="M0 0 C0.66 0 1.32 0 2 0 C3.46726798 3.81489674 2.43336419 6.29011622 1 10 C0.67 10 0.34 10 0 10 C0 6.7 0 3.4 0 0 Z " fill="#39787B" transform="translate(415,112)"/>
<path d="M0 0 C0.66 0.99 1.32 1.98 2 3 C1.0409375 3.433125 1.0409375 3.433125 0.0625 3.875 C-2.15206079 4.82823451 -2.15206079 4.82823451 -3 7 C-3.66 6.67 -4.32 6.34 -5 6 C-5 5.34 -5 4.68 -5 4 C-3.37373596 2.61767557 -1.7074998 1.28062485 0 0 Z " fill="#3B908E" transform="translate(142,108)"/>
</svg>
