<?xml version="1.0" encoding="UTF-8"?>
<svg id="_图层_2" data-name="图层 2" xmlns="http://www.w3.org/2000/svg" viewBox="0 0 446.8 159.7">
  <defs>
    <style>
      .cls-1 {
        fill: #fff;
      }
    </style>
  </defs>
  <g id="_图层_1-2" data-name="图层 1">
    <path class="cls-1" d="m97.2,89.9c-1.5-11.4-8.6-18.3-18.9-22.2-4.9-1.8-9.91-3.3-15-4.5-9.2-2.3-18.5-4.2-27.6-6.9-6.2-1.9-10.3-6.4-10.3-13.3s3.6-11.7,9.7-14.6c14.9-7.1,30.6-3.4,39.6,8.6,1.43,2,2.29,4.35,2.5,6.8h18.2c-.05-4.91-1.36-9.73-3.8-14l-.3-.4h0c-3.08-4.88-7.22-9.02-12.1-12.1-13.4-8.8-35.9-10.3-51.9-2.7-12.6,6-19.4,16.9-18.7,31s8.9,22.2,21.5,26.7c4.3,1.6,9,2.4,13.5,3.6,9.2,2.3,18.7,3.9,27.5,7.3,10.7,4.1,12.8,16.4,5.3,24.8-11.3,12.6-41.5,10.1-52.5-3.2h0c-2.61-3.06-4.46-6.69-5.4-10.6H0c.2.9,4.5,11.5,6.9,15.3,2.18,3.81,5.02,7.2,8.4,10,17.7,14.7,51,16.1,69.4,2.3,10.6-7.9,14.1-19,12.5-31.9Z"/>
    <path class="cls-1" d="m378.5,42.9s-13.9,35-20.8,53.2c-1,2.65-1.51,5.47-1.5,8.3v4.3h-2.9l-24.9-65.8h-17.6c.9,2.7,21.1,55.2,30.8,79.4,1.75,3.87,1.64,8.32-.3,12.1-3.8,8.1-7.1,16.4-10.9,25.3h18.1c14.2-35.3,46.3-114.6,47.1-116.8h-17.1Z"/>
    <path class="cls-1" d="m127.8,128.9h16.8l-.4-79c0-3.31-2.69-6-6-6h-10.8l.4,85Z"/>
    <path class="cls-1" d="m430.1,20.7h-3.8l-9,21.8h3.3l2.2-5.8h10.6l2.3,5.8h3.3l-8.9-21.8Zm-6.3,13.4l4-10.2h.6l4,10.2h-8.6Z"/>
    <rect class="cls-1" x="443.6" y="20.7" width="3.2" height="21.75"/>
    <path class="cls-1" d="m183.2,62.8h-2.2v-1.9h0v-2.6h35.4v-8.6c.11-3.09-2.31-5.69-5.4-5.8-.07,0-.14,0-.2,0h-36.8v85h15.7c0-20.1.1-38.6-.1-58.3,0-4-2-6.9-6.4-7.8Z"/>
    <path class="cls-1" d="m149.3,1.4l-.3.3c-7.6,4.7-13,6.5-23.1,2.1l-.8-.4c-3.29-1.43-6.71-2.57-10.2-3.4,2.3.9,6.5,4.5,9.1,7.7,4,5.3,4.2,12.1-.8,20.2l-.4.4h0l.2-.2c7.8-4.6,17.3-5.4,25.4-.4-4.9-6.3-4.6-18.5.9-26.3Z"/>
    <path class="cls-1" d="m283,129.1h15.3c0-21.3.6-41.5-.2-62.2-.5-10.7-6.4-20.5-17.1-24-14.7-4.8-30.1-3.4-42.1,4.3-8.3,5.3-13.1,13.9-13.2,24.4,3.5,0,6.8.2,10,.1h6.3s-.2-3.2,2.2-7.7c7-11.4,28.9-11.3,35.1-3.2,2.39,3.36,3.4,7.52,2.8,11.6-1.1,5.8-10.8,6.2-16.2,7.1-9.3,1.7-18.9,2.9-27.7,6s-14,12-13.7,22.1,5.3,18,15.4,21.8c14.8,5.6,29.4.6,37.9-12.7.6-.81,1.1-1.68,1.5-2.6h3.8c0,1.9-.1,13.5-.1,15Zm0-39h0c-.5,15.1-10.1,28.8-27.5,28-2.3-.22-4.55-.76-6.7-1.6-4.6-1.9-6.7-5.7-6.8-10.6s1.6-8.7,6-10.3c5.12-1.8,10.37-3.2,15.7-4.2,5.6-1.3,13.2-2.1,15.4-6.9h3.9v5.6Z"/>
  </g>
</svg>